<mxfile host="Electron" modified="2025-05-26T14:00:38.814Z" agent="Mozilla/5.0 (Windows NT 10.0; Win64; x64) AppleWebKit/537.36 (KHTML, like Gecko) draw.io/24.6.1 Chrome/124.0.6367.207 Electron/30.0.6 Safari/537.36" etag="Ybm26vqPqOLLjMwPrHxy" version="24.6.1" type="device">
  <diagram name="PÃ¡gina-1" id="TCDw9VE1Trcz-g8Cc2za">
    <mxGraphModel dx="1674" dy="844" grid="1" gridSize="10" guides="1" tooltips="1" connect="1" arrows="1" fold="1" page="1" pageScale="1" pageWidth="827" pageHeight="1169" math="0" shadow="0">
      <root>
        <mxCell id="0" />
        <mxCell id="1" parent="0" />
        <mxCell id="VDI4iadaCPwxhf6gson_-1" value="Pacientes" style="shape=umlActor;verticalLabelPosition=bottom;verticalAlign=top;html=1;outlineConnect=0;" vertex="1" parent="1">
          <mxGeometry x="140" y="290" width="50" height="70" as="geometry" />
        </mxCell>
        <mxCell id="VDI4iadaCPwxhf6gson_-5" value="" style="endArrow=none;html=1;rounded=0;" edge="1" parent="1">
          <mxGeometry width="50" height="50" relative="1" as="geometry">
            <mxPoint x="200" y="300" as="sourcePoint" />
            <mxPoint x="360" y="120" as="targetPoint" />
          </mxGeometry>
        </mxCell>
        <mxCell id="VDI4iadaCPwxhf6gson_-6" value="Solicitar citas" style="ellipse;whiteSpace=wrap;html=1;" vertex="1" parent="1">
          <mxGeometry x="360" y="80" width="120" height="70" as="geometry" />
        </mxCell>
        <mxCell id="VDI4iadaCPwxhf6gson_-10" value="Ver historial medico" style="ellipse;whiteSpace=wrap;html=1;" vertex="1" parent="1">
          <mxGeometry x="360" y="180" width="120" height="70" as="geometry" />
        </mxCell>
        <mxCell id="VDI4iadaCPwxhf6gson_-11" value="comunicacion con veterinario" style="ellipse;whiteSpace=wrap;html=1;" vertex="1" parent="1">
          <mxGeometry x="360" y="290" width="120" height="70" as="geometry" />
        </mxCell>
        <mxCell id="VDI4iadaCPwxhf6gson_-12" value="Gestion de citas" style="ellipse;whiteSpace=wrap;html=1;" vertex="1" parent="1">
          <mxGeometry x="370" y="470" width="120" height="70" as="geometry" />
        </mxCell>
        <mxCell id="VDI4iadaCPwxhf6gson_-13" value="Acceso a historiales" style="ellipse;whiteSpace=wrap;html=1;" vertex="1" parent="1">
          <mxGeometry x="380" y="585" width="120" height="70" as="geometry" />
        </mxCell>
        <mxCell id="VDI4iadaCPwxhf6gson_-14" value="" style="endArrow=none;html=1;rounded=0;entryX=0;entryY=0.5;entryDx=0;entryDy=0;" edge="1" parent="1" target="VDI4iadaCPwxhf6gson_-10">
          <mxGeometry width="50" height="50" relative="1" as="geometry">
            <mxPoint x="210" y="320" as="sourcePoint" />
            <mxPoint x="380" y="380" as="targetPoint" />
          </mxGeometry>
        </mxCell>
        <mxCell id="VDI4iadaCPwxhf6gson_-16" value="" style="endArrow=none;html=1;rounded=0;entryX=0;entryY=0.5;entryDx=0;entryDy=0;" edge="1" parent="1" target="VDI4iadaCPwxhf6gson_-11">
          <mxGeometry width="50" height="50" relative="1" as="geometry">
            <mxPoint x="220" y="340" as="sourcePoint" />
            <mxPoint x="380" y="380" as="targetPoint" />
          </mxGeometry>
        </mxCell>
        <mxCell id="VDI4iadaCPwxhf6gson_-18" value="gestionar personal" style="ellipse;whiteSpace=wrap;html=1;" vertex="1" parent="1">
          <mxGeometry x="360" y="830" width="120" height="70" as="geometry" />
        </mxCell>
        <mxCell id="VDI4iadaCPwxhf6gson_-19" value="Escribir recetas" style="ellipse;whiteSpace=wrap;html=1;" vertex="1" parent="1">
          <mxGeometry x="370" y="690" width="120" height="70" as="geometry" />
        </mxCell>
        <mxCell id="VDI4iadaCPwxhf6gson_-20" value="Veterinario" style="shape=umlActor;verticalLabelPosition=bottom;verticalAlign=top;html=1;outlineConnect=0;" vertex="1" parent="1">
          <mxGeometry x="150" y="555" width="30" height="60" as="geometry" />
        </mxCell>
        <mxCell id="VDI4iadaCPwxhf6gson_-29" value="" style="endArrow=none;html=1;rounded=0;entryX=0;entryY=0.5;entryDx=0;entryDy=0;" edge="1" parent="1" target="VDI4iadaCPwxhf6gson_-12">
          <mxGeometry width="50" height="50" relative="1" as="geometry">
            <mxPoint x="210" y="570" as="sourcePoint" />
            <mxPoint x="380" y="380" as="targetPoint" />
          </mxGeometry>
        </mxCell>
        <mxCell id="VDI4iadaCPwxhf6gson_-30" value="" style="endArrow=none;html=1;rounded=0;entryX=0;entryY=0.5;entryDx=0;entryDy=0;" edge="1" parent="1" target="VDI4iadaCPwxhf6gson_-13">
          <mxGeometry width="50" height="50" relative="1" as="geometry">
            <mxPoint x="210" y="610" as="sourcePoint" />
            <mxPoint x="380" y="580" as="targetPoint" />
          </mxGeometry>
        </mxCell>
        <mxCell id="VDI4iadaCPwxhf6gson_-31" value="" style="endArrow=none;html=1;rounded=0;entryX=-0.017;entryY=0.4;entryDx=0;entryDy=0;entryPerimeter=0;" edge="1" parent="1" target="VDI4iadaCPwxhf6gson_-19">
          <mxGeometry width="50" height="50" relative="1" as="geometry">
            <mxPoint x="220" y="650" as="sourcePoint" />
            <mxPoint x="380" y="580" as="targetPoint" />
          </mxGeometry>
        </mxCell>
        <mxCell id="VDI4iadaCPwxhf6gson_-36" value="manejas facturas" style="ellipse;whiteSpace=wrap;html=1;" vertex="1" parent="1">
          <mxGeometry x="370" y="1070" width="120" height="70" as="geometry" />
        </mxCell>
        <mxCell id="VDI4iadaCPwxhf6gson_-37" value="verificar informes medicos" style="ellipse;whiteSpace=wrap;html=1;" vertex="1" parent="1">
          <mxGeometry x="370" y="950" width="120" height="70" as="geometry" />
        </mxCell>
        <mxCell id="VDI4iadaCPwxhf6gson_-38" value="Administradores" style="shape=umlActor;verticalLabelPosition=bottom;verticalAlign=top;html=1;outlineConnect=0;" vertex="1" parent="1">
          <mxGeometry x="150" y="900" width="30" height="60" as="geometry" />
        </mxCell>
        <mxCell id="VDI4iadaCPwxhf6gson_-43" value="" style="endArrow=none;html=1;rounded=0;entryX=0;entryY=0.5;entryDx=0;entryDy=0;" edge="1" parent="1" target="VDI4iadaCPwxhf6gson_-18">
          <mxGeometry width="50" height="50" relative="1" as="geometry">
            <mxPoint x="200" y="950" as="sourcePoint" />
            <mxPoint x="420" y="1120" as="targetPoint" />
          </mxGeometry>
        </mxCell>
        <mxCell id="VDI4iadaCPwxhf6gson_-44" value="" style="endArrow=none;html=1;rounded=0;entryX=0;entryY=0.5;entryDx=0;entryDy=0;" edge="1" parent="1" target="VDI4iadaCPwxhf6gson_-37">
          <mxGeometry width="50" height="50" relative="1" as="geometry">
            <mxPoint x="210" y="970" as="sourcePoint" />
            <mxPoint x="420" y="1120" as="targetPoint" />
          </mxGeometry>
        </mxCell>
        <mxCell id="VDI4iadaCPwxhf6gson_-45" value="" style="endArrow=none;html=1;rounded=0;entryX=-0.017;entryY=0.371;entryDx=0;entryDy=0;entryPerimeter=0;" edge="1" parent="1" target="VDI4iadaCPwxhf6gson_-36">
          <mxGeometry width="50" height="50" relative="1" as="geometry">
            <mxPoint x="210" y="1010" as="sourcePoint" />
            <mxPoint x="420" y="1120" as="targetPoint" />
          </mxGeometry>
        </mxCell>
      </root>
    </mxGraphModel>
  </diagram>
</mxfile>
